<?xml version="1.0" encoding="UTF-8" standalone="no"?>
<svg
   xmlns:dc="http://purl.org/dc/elements/1.1/"
   xmlns:cc="http://creativecommons.org/ns#"
   xmlns:rdf="http://www.w3.org/1999/02/22-rdf-syntax-ns#"
   xmlns:svg="http://www.w3.org/2000/svg"
   xmlns="http://www.w3.org/2000/svg"
   xmlns:sodipodi="http://sodipodi.sourceforge.net/DTD/sodipodi-0.dtd"
   xmlns:inkscape="http://www.inkscape.org/namespaces/inkscape"
   width="210mm"
   height="297mm"
   viewBox="0 0 210 297"
   version="1.1"
   id="svg8"
   inkscape:version="1.0.2-2 (e86c870879, 2021-01-15)"
   sodipodi:docname="desenhominions.svg">
  <defs
     id="defs2" />
  <sodipodi:namedview
     id="base"
     pagecolor="#ffffff"
     bordercolor="#666666"
     borderopacity="1.0"
     inkscape:pageopacity="0.0"
     inkscape:pageshadow="2"
     inkscape:zoom="0.67611765"
     inkscape:cx="814.76393"
     inkscape:cy="579.92522"
     inkscape:document-units="mm"
     inkscape:current-layer="layer1"
     inkscape:document-rotation="0"
     showgrid="false"
     inkscape:window-width="1920"
     inkscape:window-height="1001"
     inkscape:window-x="-9"
     inkscape:window-y="-9"
     inkscape:window-maximized="1" />
  <metadata
     id="metadata5">
    <rdf:RDF>
      <cc:Work
         rdf:about="">
        <dc:format>image/svg+xml</dc:format>
        <dc:type
           rdf:resource="http://purl.org/dc/dcmitype/StillImage" />
        <dc:title></dc:title>
      </cc:Work>
    </rdf:RDF>
  </metadata>
  <g
     inkscape:label="minions"
     inkscape:groupmode="layer"
     id="layer1"
     style="display:inline">
    <ellipse
       style="fill:#fcf803;fill-opacity:1;stroke:#000000;stroke-width:0;stroke-miterlimit:4;stroke-dasharray:none"
       id="path54"
       cx="51.885956"
       cy="50.827465"
       rx="26.892553"
       ry="25.469851" />
    <ellipse
       style="fill:#fff507;fill-opacity:1;stroke:#000000;stroke-width:0;stroke-miterlimit:4;stroke-dasharray:none"
       id="path54-9"
       cx="51.796547"
       cy="99.656235"
       rx="26.812971"
       ry="27.891064" />
    <rect
       style="fill:#fcf803;fill-opacity:1;stroke:#000000;stroke-width:0;stroke-miterlimit:4;stroke-dasharray:none"
       id="rect913"
       width="52.990005"
       height="50.084553"
       x="25.318987"
       y="55.480404" />
    <ellipse
       style="fill:#000000;fill-opacity:1;stroke:#000000;stroke-width:0;stroke-miterlimit:4;stroke-dasharray:none"
       id="path917"
       cx="52.667099"
       cy="52.082489"
       rx="11.73982"
       ry="10.957166" />
    <ellipse
       style="fill:#ffffff;fill-opacity:1;stroke:#000000;stroke-width:0;stroke-miterlimit:4;stroke-dasharray:none"
       id="path917-2"
       cx="52.748131"
       cy="52.163548"
       rx="8.0222101"
       ry="8.0222111" />
    <ellipse
       style="fill:#000000;fill-opacity:1;stroke:#000000;stroke-width:0;stroke-miterlimit:4;stroke-dasharray:none"
       id="path941"
       cx="53.02486"
       cy="52.554859"
       rx="4.891592"
       ry="4.5002646" />
    <path
       style="fill:#000000;fill-opacity:1;stroke:#000000;stroke-width:0;stroke-miterlimit:4;stroke-dasharray:none"
       d="m 62.898943,51.602549 15.410047,0.352544 v 3.525311 H 62.898943 Z"
       id="path955"
       inkscape:transform-center-x="0.62024515"
       inkscape:transform-center-y="2.0858074" />
    <path
       style="display:inline;fill:#000000;fill-opacity:1;stroke:#000000;stroke-width:0;stroke-miterlimit:4;stroke-dasharray:none"
       d="m 25.318987,51.524343 17.569927,0.359654 v 3.596407 H 25.318987 Z"
       id="path955-5" />
    <path
       style="fill:#000000;fill-opacity:1;stroke:#000000;stroke-width:0;stroke-miterlimit:4;stroke-dasharray:none"
       d="m 115.66488,69.730976 -0.27672,-5.810914"
       id="path981" />
    <path
       style="fill:#f9f9f9;fill-opacity:1;stroke:#000000;stroke-width:0;stroke-miterlimit:4;stroke-dasharray:none;stroke-opacity:1"
       d="m 114.83474,48.42429 -7.19446,-0.276709"
       id="path1001" />
    <path
       style="fill:#f9f9f9;fill-opacity:1;stroke:#000000;stroke-width:0;stroke-miterlimit:4;stroke-dasharray:none;stroke-opacity:1"
       d="m 107.64028,48.147581 7.19446,0.276709"
       id="path1003" />
    <path
       style="opacity:0.98;fill:#1a1a1a;fill-opacity:1;stroke:#000001;stroke-width:0.555625;stroke-miterlimit:4;stroke-dasharray:none;stroke-opacity:0.826568"
       d="m 35.418911,3.8739391 c 5.14182,6.6381399 9.92784,14.5981999 13.5588,21.8601099"
       id="path1050" />
    <path
       style="opacity:0.98;fill:#1a1a1a;fill-opacity:1;stroke:#000001;stroke-width:0.555625;stroke-miterlimit:4;stroke-dasharray:none;stroke-opacity:0.826568"
       d="m 55.591471,10.952109 c -2.22726,4.5688 -5.07984,9.92374 -6.61376,14.78194"
       id="path1052" />
    <path
       style="opacity:0.98;fill:#1a1a1a;fill-opacity:1;stroke:#000001;stroke-width:0.555625;stroke-miterlimit:4;stroke-dasharray:none;stroke-opacity:0.826568"
       d="m 42.890081,2.7670988 c 2.43972,7.4927202 4.32298,15.9083702 6.08763,22.9669502"
       id="path1056" />
    <path
       style="opacity:0.98;fill:#1a1a1a;fill-opacity:1;stroke:#000001;stroke-width:0.555625;stroke-miterlimit:4;stroke-dasharray:none;stroke-opacity:0.826568"
       d="m 70.778227,5.667359 c -6.70399,6.42479 -15.1678,13.35127 -21.800516,20.06669"
       id="path1060" />
    <path
       style="opacity:0.98;fill:#ffff00;fill-opacity:1;stroke:#000001;stroke-width:0.331108;stroke-miterlimit:4;stroke-dasharray:none;stroke-opacity:0.826568"
       d="m 43.072596,73.112564 c 4.52555,-6.981524 11.95404,-5.565765 17.80887,-2.63836"
       id="path1070" />
    <path
       style="opacity:0.98;fill:#059fed;fill-opacity:1;stroke:#0000eb;stroke-width:3.10597;stroke-miterlimit:4;stroke-dasharray:none;stroke-opacity:0.82656801"
       d=""
       id="path1090"
       transform="scale(0.26458333)" />
    <path
       style="opacity:0.98;fill:#04a1ee;fill-opacity:1;stroke:none;stroke-width:0.845843;stroke-miterlimit:4;stroke-dasharray:none;stroke-opacity:0.97417"
       d="m 45.283644,127.29553 c -7.773252,-2.13793 -14.168855,-7.40756 -17.754285,-14.62859 -1.251581,-2.52068 -2.656066,-6.77679 -2.341468,-7.09551 0.114298,-0.1158 12.113304,-0.16362 26.664457,-0.10628 l 26.456642,0.10428 -1.082482,3.26168 c -1.504287,4.53266 -3.38207,7.56111 -6.895107,11.12027 -5.346871,5.41709 -10.408684,7.68136 -17.797023,7.96107 -3.486006,0.13197 -4.994519,0.003 -7.250734,-0.61692 z"
       id="path1106" />
    <path
       style="opacity:0.98;fill:#04a1ee;fill-opacity:0;stroke:none;stroke-width:3.10597;stroke-miterlimit:4;stroke-dasharray:none;stroke-opacity:0.97416979"
       d="m 96.197606,391.28931 c -0.28881,-3.0505 -0.296365,-44.98107 -0.01679,-93.17905 l 0.508321,-87.63267 h 29.814383 29.81439 l 3.56604,6.72204 c 12.82603,24.1773 51.07907,28.90826 71.43961,8.83532 3.67057,-3.61871 7.51047,-8.5995 8.53313,-11.06842 l 1.85938,-4.48894 h 26.25029 26.2503 l 0.69763,91.33025 c 0.3837,50.23165 0.39928,92.16222 0.0346,93.17905 -0.52142,1.45397 -21.75897,1.8488 -99.44461,1.8488 H 96.722715 Z M 197.38271,271.13775 c 16.89415,-2.52916 31.45653,-4.1412 32.36083,-3.58231 0.97566,0.60299 1.37223,0.2003 0.97534,-0.9904 -0.36788,-1.10361 -4.614,-3.66682 -9.43584,-5.69602 -7.21726,-3.03729 -11.2507,-3.69941 -22.81778,-3.74569 -16.28842,-0.0652 -21.43115,1.83636 -30.93976,11.44002 -6.47377,6.53849 -7.59814,9.12182 -3.44775,7.92146 1.42357,-0.41172 16.4108,-2.8179 33.30496,-5.34706 z"
       id="path1114"
       transform="scale(0.26458333)" />
    <rect
       style="opacity:0.98;fill:#04a1ee;fill-opacity:1;stroke:none;stroke-width:0.555625;stroke-miterlimit:4;stroke-dasharray:none;stroke-opacity:0.97417003"
       id="rect1118"
       width="38.741409"
       height="27.392916"
       x="32.480171"
       y="85.700699" />
    <path
       style="display:inline;fill:#02a3eb;fill-opacity:1;stroke:#000000;stroke-width:0;stroke-miterlimit:4;stroke-dasharray:none"
       d="m 27.813644,76.992701 11.263272,13.48964 -2.712873,2.36102 -11.534574,-13.25353 z"
       id="path955-5-0" />
    <path
       style="display:inline;fill:#04a1ee;fill-opacity:1;stroke:#000000;stroke-width:0;stroke-miterlimit:4;stroke-dasharray:none"
       d="m 64.653854,91.41556 11.080919,-13.63983 2.83719,2.21009 -10.797189,13.86085 z"
       id="path955-5-5" />
    <ellipse
       style="opacity:0.98;fill:#1a1a1a;fill-opacity:1;stroke:none;stroke-width:0.377992;stroke-miterlimit:4;stroke-dasharray:none;stroke-opacity:0.97417"
       id="path1149"
       cx="33.067162"
       cy="86.092026"
       rx="1.3696456"
       ry="1.5653093" />
    <ellipse
       style="display:inline;opacity:0.98;fill:#1a1a1a;fill-opacity:1;stroke:none;stroke-width:0.377992;stroke-miterlimit:4;stroke-dasharray:none;stroke-opacity:0.97417"
       id="path1149-2"
       cx="70.438927"
       cy="86.874672"
       rx="1.3696456"
       ry="1.5653093" />
    <path
       style="opacity:0.93;fill:#09a3e9;fill-opacity:1;stroke:#000000;stroke-width:0.779961;stroke-miterlimit:0;stroke-dasharray:none;stroke-opacity:0.77"
       d="m 45.787599,92.23552 c 5.864056,-1.82298 18.866255,-0.81996 18.866255,-0.81996 -2.34559,4.31674 -1.37205,11.72289 -7.76872,12.21328 -5.939525,1.10685 -11.440895,-4.3227 -11.097535,-11.39332 z"
       id="path1173"
       sodipodi:nodetypes="cccc"
       inkscape:transform-center-x="29.736739"
       inkscape:transform-center-y="-27.754596" />
    <ellipse
       style="opacity:0.93;fill:#000000;fill-opacity:1;stroke:#000000;stroke-width:0.731308;stroke-miterlimit:0;stroke-dasharray:none;stroke-opacity:0.77"
       id="path1177"
       cx="37.763088"
       cy="128.55104"
       rx="6.0655742"
       ry="4.891592" />
    <ellipse
       style="display:inline;opacity:0.93;fill:#000000;fill-opacity:1;stroke:#000000;stroke-width:0.731308;stroke-miterlimit:0;stroke-dasharray:none;stroke-opacity:0.77"
       id="path1177-5"
       cx="66.916977"
       cy="128.35538"
       rx="6.0655742"
       ry="4.891592" />
    <path
       style="opacity:0.93;fill:#ffffff;fill-opacity:1;stroke:#000000;stroke-width:0.409674;stroke-miterlimit:0;stroke-dasharray:none;stroke-opacity:0.77"
       d="m 78.30899,80.523493 c 5.39301,-2.323158 11.44647,16.611494 8.03142,20.733257 -2.29228,2.76666 -5.30773,3.28091 -8.03142,4.30821"
       id="path1199" />
    <path
       style="display:inline;opacity:0.93;fill:#ffffff;fill-opacity:1;stroke:#000000;stroke-width:0.430093;stroke-miterlimit:0;stroke-dasharray:none;stroke-opacity:0.77"
       d="m 25.318987,80.540107 c -5.947949,-2.32161 -12.624308,16.60048 -8.857851,20.719503 2.528155,2.76482 5.853894,3.27873 8.857851,4.30535"
       id="path1199-1" />
  </g>
</svg>
